<?xml version="1.0" encoding="utf-8"?>
<!-- Generator: Adobe Illustrator 25.4.1, SVG Export Plug-In . SVG Version: 6.00 Build 0)  -->
<svg version="1.1" id="Layer_1" xmlns="http://www.w3.org/2000/svg" xmlns:xlink="http://www.w3.org/1999/xlink" x="0px" y="0px"
	 viewBox="0 0 425.2 141.73" style="enable-background:new 0 0 425.2 141.73;" xml:space="preserve">
<style type="text/css">
	.st0{fill-rule:evenodd;clip-rule:evenodd;fill:#FFFFFF;stroke:#ED1C24;stroke-width:3.000000e-03;stroke-miterlimit:10;}
	.st1{fill:none;stroke:#ED1C24;stroke-width:3.000000e-03;stroke-linecap:round;stroke-linejoin:round;stroke-miterlimit:10;}
</style>
<g>
	<path class="st0" d="M81.18,43.54c0,6.09-2.22,11.97-6.25,16.53l0,40.96h-7.5v22.5H44.96v-22.5h-7.5V60.07
		c-4.03-4.57-6.25-10.45-6.25-16.53c0-13.81,11.19-25,24.98-25S81.18,29.73,81.18,43.54L81.18,43.54z"/>
	<path class="st1" d="M81.18,43.54c0,6.09-2.22,11.97-6.25,16.53l0,40.96h-7.5v22.5H44.96v-22.5h-7.5V60.07
		c-4.03-4.57-6.25-10.45-6.25-16.53c0-13.81,11.19-25,24.98-25S81.18,29.73,81.18,43.54L81.18,43.54z"/>
	<path class="st0" d="M143.64,43.54c0-13.81-11.19-25-24.98-25s-24.98,11.19-24.98,25c-0.05,6.1,2.18,12,6.25,16.53l0,63.46h7.5
		v-22.5h22.49v22.5h7.5V60.07C141.18,55.36,143.37,49.57,143.64,43.54L143.64,43.54z"/>
	<path class="st1" d="M143.64,43.54c0-13.81-11.19-25-24.98-25s-24.98,11.19-24.98,25c-0.05,6.1,2.18,12,6.25,16.53l0,63.46h7.5
		v-22.5h22.49v22.5h7.5V60.07C141.18,55.36,143.37,49.57,143.64,43.54L143.64,43.54z"/>
	<path class="st0" d="M206.11,43.54c0.12,6.11-2.11,12.03-6.25,16.53v63.46h-14.99v-22.5h-7.5v22.5h-14.99V60.07
		c-3.99-4.59-6.21-10.45-6.25-16.53c0-13.81,11.19-25,24.98-25S206.11,29.73,206.11,43.54L206.11,43.54z"/>
	<path class="st1" d="M206.11,43.54c0.12,6.11-2.11,12.03-6.25,16.53v63.46h-14.99v-22.5h-7.5v22.5h-14.99V60.07
		c-3.99-4.59-6.21-10.45-6.25-16.53c0-13.81,11.19-25,24.98-25S206.11,29.73,206.11,43.54L206.11,43.54z"/>
	<path class="st0" d="M268.57,43.54c0-13.81-11.19-25-24.98-25c-13.8,0-24.98,11.19-24.98,25c0,6.09,2.22,11.97,6.25,16.53v40.96
		h7.5v22.5h14.99v-22.5h14.99V60.07C266.35,55.51,268.57,49.63,268.57,43.54L268.57,43.54z"/>
	<path class="st1" d="M268.57,43.54c0-13.81-11.19-25-24.98-25c-13.8,0-24.98,11.19-24.98,25c0,6.09,2.22,11.97,6.25,16.53v40.96
		h7.5v22.5h14.99v-22.5h14.99V60.07C266.35,55.51,268.57,49.63,268.57,43.54L268.57,43.54z"/>
	<path class="st0" d="M331.03,43.54c0-13.81-11.19-25-24.98-25c-13.8,0-24.98,11.19-24.98,25c0,6.09,2.22,11.97,6.25,16.53v40.96
		h14.99v22.5h22.49V60.07C328.81,55.51,331.03,49.63,331.03,43.54L331.03,43.54z"/>
	<path class="st1" d="M331.03,43.54c0-13.81-11.19-25-24.98-25c-13.8,0-24.98,11.19-24.98,25c0,6.09,2.22,11.97,6.25,16.53v40.96
		h14.99v22.5h22.49V60.07C328.81,55.51,331.03,49.63,331.03,43.54L331.03,43.54z"/>
	<path class="st0" d="M393.49,43.54c0-13.81-11.19-25-24.98-25s-24.98,11.19-24.98,25c0.14,6.06,2.35,11.89,6.25,16.53v63.46h14.99
		v-22.5h22.49V60.07C391.27,55.51,393.49,49.63,393.49,43.54L393.49,43.54z"/>
	<path class="st1" d="M393.49,43.54c0-13.81-11.19-25-24.98-25s-24.98,11.19-24.98,25c0.14,6.06,2.35,11.89,6.25,16.53v63.46h14.99
		v-22.5h22.49V60.07C391.27,55.51,393.49,49.63,393.49,43.54L393.49,43.54z"/>
</g>
</svg>
