<?xml version="1.0" encoding="utf-8"?>
<!-- Generator: Adobe Illustrator 25.4.1, SVG Export Plug-In . SVG Version: 6.00 Build 0)  -->
<svg version="1.1" id="Layer_1" xmlns="http://www.w3.org/2000/svg" xmlns:xlink="http://www.w3.org/1999/xlink" x="0px" y="0px"
	 viewBox="0 0 2160 1440" style="enable-background:new 0 0 2160 1440;" xml:space="preserve">
<style type="text/css">
	.st0{fill:none;stroke:#FF0000;stroke-width:3;stroke-linecap:round;stroke-miterlimit:11.3386;}
	.st1{fill-rule:evenodd;clip-rule:evenodd;fill:#BFBFBF;}
	.st2{fill-rule:evenodd;clip-rule:evenodd;fill:#FFFFFF;}
	.st3{fill-rule:evenodd;clip-rule:evenodd;fill:#A5A5A5;}
	.st4{fill:none;stroke:#FF0000;stroke-width:3;stroke-linecap:round;stroke-linejoin:round;stroke-miterlimit:10;}
</style>
<g id="svgGroup">
	<path id="front_outsideCutPath" vector-effect="non-scaling-stroke" class="st0" d="M8.6,1094.4v68h8.5v17v51H8.6v68h8.5v68H8.6v68
		h85v-8.5h68v8.5h68v-8.5h68v8.5h68v-8.5h68v8.5h68h17v-68h-8.5v-68h8.5v-68h-8.5v-51v-17h8.5v-68h-85v8.5h-68v-8.5h-68v8.5h-68
		v-8.5h-68v8.5h-68v-8.5h-68H8.6z"/>
	<path id="left_outsideCutPath" vector-effect="non-scaling-stroke" class="st0" d="M533.6,1094.4v68h-8.5v68h8.5v68h-8.5v68h8.5v68
		h93.5v-8.5h68v8.5h68v-8.5h68v8.5h68v-8.5h68v8.5h68v-8.5h68v8.5h68h25.5v-68h8.5v-68h-8.5v-68h8.5v-68h-8.5v-68h-93.5v8.5h-68
		v-8.5h-68v8.5h-68v-8.5h-68v8.5h-68v-8.5h-68v8.5h-68v-8.5h-68H533.6z"/>
	<path id="top_outsideCutPath" vector-effect="non-scaling-stroke" class="st0" d="M1222.6,762.8v93.5h-8.5v68h8.5v68h-8.5v68h8.5
		v68h-8.5v68h8.5v68h-8.5v68h8.5v68v25.5h76.5v8.5h68v-8.5h68v8.5h68v-8.5h68v8.5h68v-8.5h68h8.5v-93.5h8.5v-68h-8.5v-68h8.5v-68
		h-8.5v-68h8.5v-68h-8.5v-68h8.5v-68h-8.5v-68v-25.5h-76.5v-8.5h-68v8.5h-68v-8.5h-68v8.5h-68v-8.5h-68v8.5h-68H1222.6z"/>
	<path id="back_outsideCutPath" vector-effect="non-scaling-stroke" class="st0" d="M8.6,745.7v68h8.5v17v51H8.6v68h8.5v68H8.6v68
		h85v-8.5h68v8.5h68v-8.5h68v8.5h68v-8.5h68v8.5h68h17v-68h-8.5v-68h8.5v-68h-8.5v-51v-17h8.5v-68h-85v8.5h-68v-8.5h-68v8.5h-68
		v-8.5h-68v8.5h-68v-8.5h-68H8.6z"/>
	<path id="right_outsideCutPath" vector-effect="non-scaling-stroke" class="st0" d="M533.6,745.7v68h-8.5v68h8.5v68h-8.5v68h8.5v68
		h93.5v-8.5h68v8.5h68v-8.5h68v8.5h68v-8.5h68v8.5h68v-8.5h68v8.5h68h25.5v-68h8.5v-68h-8.5v-68h8.5v-68h-8.5v-68h-93.5v8.5h-68
		v-8.5h-68v8.5h-68v-8.5h-68v8.5h-68v-8.5h-68v8.5h-68v-8.5h-68H533.6z"/>
	<path id="bottom_outsideCutPath" vector-effect="non-scaling-stroke" class="st0" d="M17.1,724.2h93.5v8.5h68v-8.5h68v8.5h68v-8.5
		h68v8.5h68v-8.5h68v8.5h68v-8.5h68h25.5v-76.5h8.5v-68h-8.5v-68h8.5v-68h-8.5v-68h8.5v-68h-8.5v-68V231h-93.5v-8.5h-68v8.5h-68
		v-8.5h-68v8.5h-68v-8.5h-68v8.5h-68v-8.5h-68v8.5h-68H17.1v76.5H8.6v68h8.5v68H8.6v68h8.5v68H8.6v68h8.5v68V724.2z"/>
	<path class="st0" d="M17.1,830.8"/>
	<path class="st0" d="M17.1,830.8h493.2H17.1z"/>
	<path class="st0" d="M525.1,830.8h680.3H525.1z"/>
	<path class="st0" d="M-16.2,1141.8"/>
	<path class="st0" d="M17.1,1179.4h493.2H17.1z"/>
	<path class="st0" d="M525.1,1179.4h680.3H525.1z"/>
</g>
<g>
	<polygon class="st1" points="253.2,422.4 253.2,532.8 348.8,588 444.3,532.8 444.3,422.4 348.8,367.2 253.2,422.4 253.2,422.4 	"/>
	<polygon class="st2" points="256.9,424.5 256.9,530.6 348.8,583.7 440.6,530.6 440.6,424.5 348.8,371.5 256.9,424.5 256.9,424.5 	
		"/>
	<path class="st1" d="M286.3,477.6c0-34.5,28-62.5,62.5-62.5s62.5,28,62.5,62.5s-28,62.5-62.5,62.5S286.3,512.1,286.3,477.6
		L286.3,477.6z"/>
	<path class="st2" d="M290,477.6c0-32.4,26.3-58.7,58.7-58.7s58.7,26.3,58.7,58.7s-26.3,58.7-58.7,58.7S290,510,290,477.6L290,477.6
		z"/>
	<polygon class="st2" points="326.3,468.7 348.8,507.6 371.2,468.7 326.3,468.7 326.3,468.7 	"/>
	<polygon class="st3" points="371.2,468.7 348.8,429.8 326.3,468.7 371.2,468.7 371.2,468.7 	"/>
	<polygon class="st3" points="393.6,507.6 371.2,468.7 348.8,507.6 393.6,507.6 393.6,507.6 	"/>
	<polygon class="st3" points="348.8,507.6 326.3,468.7 303.9,507.6 348.8,507.6 348.8,507.6 	"/>
</g>
<g>
	<path class="st2" d="M324.1,586.3c0-13.8,11.2-25,25-25s25,11.2,25,25c0,13.8-11.2,25-25,25S324.1,600.1,324.1,586.3L324.1,586.3z"
		/>
	<path class="st4" d="M324.1,586.3c0-13.8,11.2-25,25-25s25,11.2,25,25c0,13.8-11.2,25-25,25S324.1,600.1,324.1,586.3L324.1,586.3z"
		/>
	<path class="st2" d="M230.4,532.6c0-13.8,11.2-25,25-25c13.8,0,25,11.2,25,25s-11.2,25-25,25C241.6,557.6,230.4,546.4,230.4,532.6
		L230.4,532.6z"/>
	<path class="st4" d="M230.4,532.6c0-13.8,11.2-25,25-25c13.8,0,25,11.2,25,25s-11.2,25-25,25C241.6,557.6,230.4,546.4,230.4,532.6
		L230.4,532.6z"/>
	<path class="st2" d="M230.4,422.6c0-13.8,11.2-25,25-25c13.8,0,25,11.2,25,25c0,13.8-11.2,25-25,25
		C241.6,447.6,230.4,436.4,230.4,422.6L230.4,422.6z"/>
	<path class="st4" d="M230.4,422.6c0-13.8,11.2-25,25-25c13.8,0,25,11.2,25,25c0,13.8-11.2,25-25,25
		C241.6,447.6,230.4,436.4,230.4,422.6L230.4,422.6z"/>
	<path class="st2" d="M324.1,368.8c0-13.8,11.2-25,25-25s25,11.2,25,25c0,13.8-11.2,25-25,25S324.1,382.7,324.1,368.8L324.1,368.8z"
		/>
	<path class="st4" d="M324.1,368.8c0-13.8,11.2-25,25-25s25,11.2,25,25c0,13.8-11.2,25-25,25S324.1,382.7,324.1,368.8L324.1,368.8z"
		/>
	<path class="st2" d="M417.8,422.6c0-13.8,11.2-25,25-25s25,11.2,25,25c0,13.8-11.2,25-25,25S417.8,436.4,417.8,422.6L417.8,422.6z"
		/>
	<path class="st4" d="M417.8,422.6c0-13.8,11.2-25,25-25s25,11.2,25,25c0,13.8-11.2,25-25,25S417.8,436.4,417.8,422.6L417.8,422.6z"
		/>
	<path class="st2" d="M417.8,532.6c0-13.8,11.2-25,25-25s25,11.2,25,25s-11.2,25-25,25S417.8,546.4,417.8,532.6L417.8,532.6z"/>
	<path class="st4" d="M417.8,532.6c0-13.8,11.2-25,25-25s25,11.2,25,25s-11.2,25-25,25S417.8,546.4,417.8,532.6L417.8,532.6z"/>
	<path class="st2" d="M217.7,423.4l18.7-32.5c1-1.8,0.4-4.1-1.4-5.1l-0.5-0.3c-1.8-1-4.1-0.4-5.1,1.4l-18.7,32.5
		c-1,1.8-0.4,4.1,1.4,5.1l0.5,0.3C214.3,425.8,216.6,425.2,217.7,423.4L217.7,423.4z"/>
	<path class="st4" d="M217.7,423.4l18.7-32.5c1-1.8,0.4-4.1-1.4-5.1l-0.5-0.3c-1.8-1-4.1-0.4-5.1,1.4l-18.7,32.5
		c-1,1.8-0.4,4.1,1.4,5.1l0.5,0.3C214.3,425.8,216.6,425.2,217.7,423.4L217.7,423.4z"/>
	<path class="st2" d="M236.4,564.3l-18.7-32.5c-1-1.8-3.3-2.4-5.1-1.4l-0.5,0.3c-1.8,1-2.4,3.3-1.4,5.1l18.7,32.5
		c1,1.8,3.3,2.4,5.1,1.4l0.5-0.3C236.8,568.4,237.4,566.1,236.4,564.3L236.4,564.3z"/>
	<path class="st4" d="M236.4,564.3l-18.7-32.5c-1-1.8-3.3-2.4-5.1-1.4l-0.5,0.3c-1.8,1-2.4,3.3-1.4,5.1l18.7,32.5
		c1,1.8,3.3,2.4,5.1,1.4l0.5-0.3C236.8,568.4,237.4,566.1,236.4,564.3L236.4,564.3z"/>
	<path class="st2" d="M330.3,336.7h37.5c2.1,0,3.7-1.7,3.7-3.7v-0.6c0-2.1-1.7-3.7-3.7-3.7h-37.5c-2.1,0-3.7,1.7-3.7,3.7v0.6
		C326.6,335,328.3,336.7,330.3,336.7L330.3,336.7z"/>
	<path class="st4" d="M330.3,336.7h37.5c2.1,0,3.7-1.7,3.7-3.7v-0.6c0-2.1-1.7-3.7-3.7-3.7h-37.5c-2.1,0-3.7,1.7-3.7,3.7v0.6
		C326.6,335,328.3,336.7,330.3,336.7L330.3,336.7z"/>
	<path class="st2" d="M330.3,626.6h37.5c2.1,0,3.7-1.7,3.7-3.7v-0.6c0-2.1-1.7-3.7-3.7-3.7h-37.5c-2.1,0-3.7,1.7-3.7,3.7v0.6
		C326.6,625,328.3,626.6,330.3,626.6L330.3,626.6z"/>
	<path class="st4" d="M330.3,626.6h37.5c2.1,0,3.7-1.7,3.7-3.7v-0.6c0-2.1-1.7-3.7-3.7-3.7h-37.5c-2.1,0-3.7,1.7-3.7,3.7v0.6
		C326.6,625,328.3,626.6,330.3,626.6L330.3,626.6z"/>
	<path class="st2" d="M468.1,568.4l18.7-32.5c1-1.8,0.4-4.1-1.4-5.1l-0.5-0.3c-1.8-1-4.1-0.4-5.1,1.4l-18.7,32.5
		c-1,1.8-0.4,4.1,1.4,5.1l0.5,0.3C464.8,570.8,467.1,570.1,468.1,568.4L468.1,568.4z"/>
	<path class="st4" d="M468.1,568.4l18.7-32.5c1-1.8,0.4-4.1-1.4-5.1l-0.5-0.3c-1.8-1-4.1-0.4-5.1,1.4l-18.7,32.5
		c-1,1.8-0.4,4.1,1.4,5.1l0.5,0.3C464.8,570.8,467.1,570.1,468.1,568.4L468.1,568.4z"/>
	<path class="st2" d="M486.9,419.3l-18.7-32.5c-1-1.8-3.3-2.4-5.1-1.4l-0.5,0.3c-1.8,1-2.4,3.3-1.4,5.1l18.7,32.5
		c1,1.8,3.3,2.4,5.1,1.4l0.5-0.3C487.3,423.4,487.9,421.1,486.9,419.3L486.9,419.3z"/>
	<path class="st4" d="M486.9,419.3l-18.7-32.5c-1-1.8-3.3-2.4-5.1-1.4l-0.5,0.3c-1.8,1-2.4,3.3-1.4,5.1l18.7,32.5
		c1,1.8,3.3,2.4,5.1,1.4l0.5-0.3C487.3,423.4,487.9,421.1,486.9,419.3L486.9,419.3z"/>
</g>
</svg>
